<?xml version="1.0" encoding="UTF-8"?>
<svg version="1.1" xmlns="http://www.w3.org/2000/svg" width="72" height="72">
<path d="M0 0 C23.76 0 47.52 0 72 0 C72 23.76 72 47.52 72 72 C48.24 72 24.48 72 0 72 C0 48.24 0 24.48 0 0 Z " fill="#FEFEFE" transform="translate(0,0)"/>
<path d="M0 0 C0 2.31 0 4.62 0 7 C-0.83402344 7.01417969 -1.66804688 7.02835938 -2.52734375 7.04296875 C-10.71273278 7.38988673 -17.56754223 8.20081347 -23.33081055 14.44091797 C-28.26403624 20.94872721 -27.77782624 28.13290854 -27.8125 36 C-27.83568114 37.36071652 -27.86105392 38.72139755 -27.88867188 40.08203125 C-27.94729393 43.38831491 -27.98375938 46.69328182 -28 50 C-30.64 50 -33.28 50 -36 50 C-36.15062046 46.09004746 -36.25825104 42.1812632 -36.32958984 38.26904297 C-36.37387882 36.2998504 -36.45019904 34.33146051 -36.52734375 32.36328125 C-36.66541573 23.29655438 -35.19390688 16.54371138 -30 9 C-27.51648032 6.49293699 -25.09668498 4.68426569 -22 3 C-21.40703125 2.66355469 -20.8140625 2.32710937 -20.203125 1.98046875 C-13.85032882 -0.99231408 -6.85016969 -0.25976767 0 0 Z " fill="#6FDEA1" transform="translate(62,12)"/>
<path d="M0 0 C1.63001953 0.01353516 1.63001953 0.01353516 3.29296875 0.02734375 C4.12441406 0.03894531 4.95585938 0.05054687 5.8125 0.0625 C5.8125 2.3725 5.8125 4.6825 5.8125 7.0625 C5.22082031 7.09988281 4.62914063 7.13726563 4.01953125 7.17578125 C-0.75522222 7.57302828 -4.30674266 8.00493361 -8.1875 11.0625 C-10.44620108 14.45055161 -10.48009413 15.83600741 -10.6015625 19.82421875 C-10.64023437 20.94248047 -10.67890625 22.06074219 -10.71875 23.21289062 C-10.7496875 24.38013672 -10.780625 25.54738281 -10.8125 26.75 C-10.85117187 27.92884766 -10.88984375 29.10769531 -10.9296875 30.32226562 C-11.02404391 33.23551977 -11.10963161 36.14876607 -11.1875 39.0625 C-13.4975 39.0625 -15.8075 39.0625 -18.1875 39.0625 C-18.30397041 34.52105006 -18.37484502 29.97998606 -18.4375 25.4375 C-18.47101562 24.15230469 -18.50453125 22.86710937 -18.5390625 21.54296875 C-18.66128848 9.74816188 -18.66128848 9.74816188 -14.1875 5.0625 C-9.45829324 0.79467926 -6.29193175 -0.06765518 0 0 Z " fill="#246BE5" transform="translate(55.1875,21.9375)"/>
<path d="M0 0 C9.9 0 19.8 0 30 0 C28.68 0.99 27.36 1.98 26 3 C25.31550781 3.71671875 24.63101563 4.4334375 23.92578125 5.171875 C19.48237282 7.94826371 15.30948095 7.42887375 10.1875 7.25 C9.20845703 7.23195313 8.22941406 7.21390625 7.22070312 7.1953125 C4.81279229 7.14832887 2.40690665 7.08265694 0 7 C0 4.69 0 2.38 0 0 Z " fill="#3073E5" transform="translate(11,12)"/>
<path d="M0 0 C1.09570312 0.00902344 2.19140625 0.01804687 3.3203125 0.02734375 C4.16335937 0.03894531 5.00640625 0.05054687 5.875 0.0625 C7.48225635 3.27701269 6.93248185 6.49862536 6.875 10.0625 C6.545 10.0625 6.215 10.0625 5.875 10.0625 C5.875 7.7525 5.875 5.4425 5.875 3.0625 C-3.6192045 3.30738906 -3.6192045 3.30738906 -12.125 7.0625 C-16.28334551 11.67039638 -17.24779749 14.24264898 -17.44140625 20.3828125 C-17.48330078 21.63964844 -17.52519531 22.89648438 -17.56835938 24.19140625 C-17.60767578 25.51011719 -17.64699219 26.82882813 -17.6875 28.1875 C-17.73069512 29.52735751 -17.77430973 30.86720156 -17.81835938 32.20703125 C-17.92470981 35.49207815 -18.02673808 38.77720281 -18.125 42.0625 C-18.455 42.0625 -18.785 42.0625 -19.125 42.0625 C-19.15005615 41.35641602 -19.1751123 40.65033203 -19.20092773 39.92285156 C-19.31707369 36.71922491 -19.43971603 33.51587882 -19.5625 30.3125 C-19.60181641 29.20132813 -19.64113281 28.09015625 -19.68164062 26.9453125 C-19.72353516 25.87539063 -19.76542969 24.80546875 -19.80859375 23.703125 C-19.84525146 22.71860352 -19.88190918 21.73408203 -19.91967773 20.71972656 C-20.04552532 18.1109019 -20.04552532 18.1109019 -20.68945312 15.83276367 C-21.125 14.0625 -21.125 14.0625 -20.41015625 12.09765625 C-15.59900058 4.33524855 -9.18602303 -0.09772365 0 0 Z " fill="#DBEAF4" transform="translate(55.125,18.9375)"/>
<path d="M0 0 C5.61 0 11.22 0 17 0 C16.34 2.31 15.68 4.62 15 7 C10.05 7 5.1 7 0 7 C0 4.69 0 2.38 0 0 Z " fill="#266AE2" transform="translate(11,22)"/>
<path d="M0 0 C0.33 0 0.66 0 1 0 C1 2.31 1 4.62 1 7 C7.6 7 14.2 7 21 7 C20.34 9.97 19.68 12.94 19 16 C18.01 15.34 17.02 14.68 16 14 C16.66 12.68 17.32 11.36 18 10 C16.78441406 10.01160156 15.56882812 10.02320313 14.31640625 10.03515625 C12.73177236 10.04453278 11.14713682 10.05363313 9.5625 10.0625 C8.76005859 10.07087891 7.95761719 10.07925781 7.13085938 10.08789062 C5.08704779 10.0965143 3.04316098 10.0522815 1 10 C0 9 0 9 -0.09765625 6.93359375 C-0.08605469 6.10988281 -0.07445312 5.28617188 -0.0625 4.4375 C-0.05347656 3.61121094 -0.04445313 2.78492188 -0.03515625 1.93359375 C-0.02355469 1.29550781 -0.01195312 0.65742188 0 0 Z " fill="#E2ECF3" transform="translate(10,12)"/>
<path d="M0 0 C0 2.66666667 0 5.33333333 0 8 C-1.65 8.66 -3.3 9.32 -5 10 C-6.65 8.35 -8.3 6.7 -10 5 C-6.75728676 1.53365137 -4.90610505 0 0 0 Z " fill="#2E71E4" transform="translate(52,22)"/>
<path d="M0 0 C1.07765625 0.01804687 2.1553125 0.03609375 3.265625 0.0546875 C4.49539062 0.08949219 4.49539062 0.08949219 5.75 0.125 C7.35725635 3.33951269 6.80748185 6.56112536 6.75 10.125 C6.42 10.125 6.09 10.125 5.75 10.125 C5.75 7.815 5.75 5.505 5.75 3.125 C3.85388566 3.26713297 1.95811606 3.41386907 0.0625 3.5625 C-0.99324219 3.64371094 -2.04898438 3.72492187 -3.13671875 3.80859375 C-5.90086297 4.08951681 -8.53945741 4.52656852 -11.25 5.125 C-10.25 2.125 -10.25 2.125 -8.578125 0.9453125 C-5.61411661 -0.09905287 -3.13557132 -0.06816459 0 0 Z " fill="#E4F2F0" transform="translate(55.25,18.875)"/>
<path d="M0 0 C4.62 0 9.24 0 14 0 C14 2.31 14 4.62 14 7 C10.04 7 6.08 7 2 7 C2.99 6.67 3.98 6.34 5 6 C5.33 5.01 5.66 4.02 6 3 C8.31 3.66 10.62 4.32 13 5 C13 3.68 13 2.36 13 1 C8.71 1 4.42 1 0 1 C0 0.67 0 0.34 0 0 Z " fill="#84E0AE" transform="translate(48,12)"/>
<path d="M0 0 C0.99 0.33 1.98 0.66 3 1 C2.278125 1.556875 1.55625 2.11375 0.8125 2.6875 C-2.05960347 4.96352756 -2.05960347 4.96352756 -4.625 7.6875 C-7 10 -7 10 -10 11 C-9.43997584 7.46340908 -8.32225676 6.04440308 -5.5625 3.8125 C-4.94503906 3.30332031 -4.32757813 2.79414063 -3.69140625 2.26953125 C-2 1 -2 1 0 0 Z " fill="#F4FAF7" transform="translate(39,13)"/>
</svg>
